<?xml version="1.0" encoding="UTF-8"?> <svg xmlns="http://www.w3.org/2000/svg" width="350" height="34" viewBox="0 0 350 34" fill="none"><path d="M7.45228 33.1202C4.99895 33.1202 3.14361 32.4302 1.88628 31.0502C0.628948 29.6395 0.00028133 27.6308 0.00028133 25.0242V23.1842H4.78428V25.3922C4.78428 27.4775 5.65828 28.5202 7.40628 28.5202C8.26495 28.5202 8.90895 28.2748 9.33828 27.7842C9.79828 27.2628 10.0283 26.4348 10.0283 25.3002C10.0283 23.9508 9.72162 22.7702 9.10828 21.7582C8.49495 20.7155 7.36028 19.4735 5.70428 18.0322C3.61895 16.1922 2.16228 14.5362 1.33428 13.0642C0.506281 11.5615 0.0922813 9.87482 0.0922813 8.00416C0.0922813 5.45882 0.736281 3.49616 2.02428 2.11615C3.31228 0.705488 5.18295 0.000154495 7.63628 0.000154495C10.0589 0.000154495 11.8836 0.705488 13.1103 2.11615C14.3676 3.49616 14.9963 5.48949 14.9963 8.09615V9.43016H10.2123V7.77416C10.2123 6.67016 9.99762 5.87282 9.56828 5.38215C9.13895 4.86082 8.51028 4.60016 7.68228 4.60016C5.99561 4.60016 5.15228 5.62749 5.15228 7.68215C5.15228 8.84749 5.45895 9.93616 6.07228 10.9482C6.71628 11.9602 7.86628 13.1868 9.52228 14.6282C11.6383 16.4682 13.0949 18.1395 13.8923 19.6422C14.6896 21.1448 15.0883 22.9082 15.0883 24.9322C15.0883 27.5695 14.4289 29.5935 13.1103 31.0042C11.8223 32.4148 9.93628 33.1202 7.45228 33.1202ZM25.3035 33.1202C22.8195 33.1202 20.9182 32.4148 19.5995 31.0042C18.2808 29.5935 17.6215 27.6002 17.6215 25.0242V8.09615C17.6215 5.52015 18.2808 3.52682 19.5995 2.11615C20.9182 0.705488 22.8195 0.000154495 25.3035 0.000154495C27.7875 0.000154495 29.6888 0.705488 31.0075 2.11615C32.3262 3.52682 32.9855 5.52015 32.9855 8.09615V25.0242C32.9855 27.6002 32.3262 29.5935 31.0075 31.0042C29.6888 32.4148 27.7875 33.1202 25.3035 33.1202ZM25.3035 28.5202C27.0515 28.5202 27.9255 27.4622 27.9255 25.3462V7.77416C27.9255 5.65816 27.0515 4.60016 25.3035 4.60016C23.5555 4.60016 22.6815 5.65816 22.6815 7.77416V25.3462C22.6815 27.4622 23.5555 28.5202 25.3035 28.5202ZM34.9836 0.460154H40.0896L43.4016 25.4382H43.4936L46.8056 0.460154H51.4516L46.5756 32.6602H39.8596L34.9836 0.460154ZM60.9683 33.1202C58.5149 33.1202 56.6443 32.4302 55.3563 31.0502C54.0683 29.6395 53.4242 27.6308 53.4242 25.0242V8.09615C53.4242 5.48949 54.0683 3.49616 55.3563 2.11615C56.6443 0.705488 58.5149 0.000154495 60.9683 0.000154495C63.4216 0.000154495 65.2923 0.705488 66.5803 2.11615C67.8683 3.49616 68.5123 5.48949 68.5123 8.09615V10.8562H63.7282V7.77416C63.7282 5.65816 62.8543 4.60016 61.1063 4.60016C59.3583 4.60016 58.4843 5.65816 58.4843 7.77416V25.3922C58.4843 27.4775 59.3583 28.5202 61.1063 28.5202C62.8543 28.5202 63.7282 27.4775 63.7282 25.3922V19.0902H61.1983V14.4902H68.5123V25.0242C68.5123 27.6308 67.8683 29.6395 66.5803 31.0502C65.2923 32.4302 63.4216 33.1202 60.9683 33.1202ZM73.417 5.33615H71.761V0.460154H76.637V4.83016L73.831 10.8562H71.485L73.417 5.33615ZM81.9151 0.460154H88.7691L94.0131 32.6602H88.9531L88.0331 26.2662V26.3582H82.2831L81.3631 32.6602H76.6711L81.9151 0.460154ZM87.4351 21.9882L85.1811 6.07216H85.0891L82.8811 21.9882H87.4351ZM96.468 0.460154H101.528V28.0602H109.854V32.6602H96.468V0.460154ZM116.37 0.460154H123.224L128.468 32.6602H123.408L122.488 26.2662V26.3582H116.738L115.818 32.6602H111.126L116.37 0.460154ZM121.89 21.9882L119.636 6.07216H119.544L117.336 21.9882H121.89ZM130.923 0.460154H138.421C141.028 0.460154 142.929 1.07349 144.125 2.30016C145.321 3.49615 145.919 5.35149 145.919 7.86615V9.84416C145.919 13.1868 144.815 15.3028 142.607 16.1922V16.2842C143.834 16.6522 144.692 17.4035 145.183 18.5382C145.704 19.6728 145.965 21.1908 145.965 23.0922V28.7502C145.965 29.6702 145.996 30.4215 146.057 31.0042C146.118 31.5562 146.272 32.1082 146.517 32.6602H141.365C141.181 32.1388 141.058 31.6482 140.997 31.1882C140.936 30.7282 140.905 29.9002 140.905 28.7042V22.8162C140.905 21.3442 140.66 20.3168 140.169 19.7342C139.709 19.1515 138.896 18.8602 137.731 18.8602H135.983V32.6602H130.923V0.460154ZM137.823 14.2602C138.835 14.2602 139.586 13.9995 140.077 13.4782C140.598 12.9568 140.859 12.0828 140.859 10.8562V8.37216C140.859 7.20682 140.644 6.36349 140.215 5.84216C139.816 5.32082 139.172 5.06016 138.283 5.06016H135.983V14.2602H137.823ZM149.476 0.460154H155.824L160.746 19.7342H160.838V0.460154H165.346V32.6602H160.148L154.076 9.15415H153.984V32.6602H149.476V0.460154ZM169.107 0.460154H174.167V32.6602H169.107V0.460154ZM189.97 18.9522L183.852 0.460154H189.234L192.684 12.2822H192.776L196.226 0.460154H201.148L195.03 18.9522V32.6602H189.97V18.9522ZM210.787 33.1202C208.334 33.1202 206.463 32.4302 205.175 31.0502C203.887 29.6395 203.243 27.6308 203.243 25.0242V0.460154H208.303V25.3922C208.303 26.4962 208.518 27.2935 208.947 27.7842C209.407 28.2748 210.051 28.5202 210.879 28.5202C211.707 28.5202 212.336 28.2748 212.765 27.7842C213.225 27.2935 213.455 26.4962 213.455 25.3922V0.460154H218.331V25.0242C218.331 27.6308 217.687 29.6395 216.399 31.0502C215.111 32.4302 213.24 33.1202 210.787 33.1202ZM225.891 5.06016H220.601V0.460154H236.241V5.06016H230.951V32.6602H225.891V5.06016ZM238.691 0.460154H243.751V32.6602H238.691V0.460154ZM247.54 0.460154H255.176C257.783 0.460154 259.684 1.07349 260.88 2.30016C262.076 3.49615 262.674 5.35149 262.674 7.86615V9.15415C262.674 10.8102 262.398 12.1595 261.846 13.2022C261.325 14.2448 260.512 14.9962 259.408 15.4562V15.5482C261.923 16.4068 263.18 18.6455 263.18 22.2642V25.0242C263.18 27.5082 262.521 29.4095 261.202 30.7282C259.914 32.0162 258.013 32.6602 255.498 32.6602H247.54V0.460154ZM254.578 13.5702C255.59 13.5702 256.342 13.3095 256.832 12.7882C257.354 12.2668 257.614 11.3928 257.614 10.1662V8.37216C257.614 7.20682 257.4 6.36349 256.97 5.84216C256.572 5.32082 255.928 5.06016 255.038 5.06016H252.6V13.5702H254.578ZM255.498 28.0602C256.388 28.0602 257.047 27.8302 257.476 27.3702C257.906 26.8795 258.12 26.0515 258.12 24.8862V22.0802C258.12 20.6082 257.86 19.5962 257.338 19.0442C256.848 18.4615 256.02 18.1702 254.854 18.1702H252.6V28.0602H255.498ZM280.819 33.1202C278.335 33.1202 276.434 32.4148 275.115 31.0042C273.796 29.5935 273.137 27.6002 273.137 25.0242V8.09615C273.137 5.52015 273.796 3.52682 275.115 2.11615C276.434 0.705488 278.335 0.000154495 280.819 0.000154495C283.303 0.000154495 285.204 0.705488 286.523 2.11615C287.842 3.52682 288.501 5.52015 288.501 8.09615V25.0242C288.501 27.6002 287.842 29.5935 286.523 31.0042C285.204 32.4148 283.303 33.1202 280.819 33.1202ZM280.819 28.5202C282.567 28.5202 283.441 27.4622 283.441 25.3462V7.77416C283.441 5.65816 282.567 4.60016 280.819 4.60016C279.071 4.60016 278.197 5.65816 278.197 7.77416V25.3462C278.197 27.4622 279.071 28.5202 280.819 28.5202ZM291.923 0.460154H296.983V28.0602H305.309V32.6602H291.923V0.460154ZM307.736 0.460154H312.796V32.6602H307.736V0.460154ZM323.163 33.1202C320.71 33.1202 318.855 32.4302 317.597 31.0502C316.34 29.6395 315.711 27.6308 315.711 25.0242V23.1842H320.495V25.3922C320.495 27.4775 321.369 28.5202 323.117 28.5202C323.976 28.5202 324.62 28.2748 325.049 27.7842C325.509 27.2628 325.739 26.4348 325.739 25.3002C325.739 23.9508 325.433 22.7702 324.819 21.7582C324.206 20.7155 323.071 19.4735 321.415 18.0322C319.33 16.1922 317.873 14.5362 317.045 13.0642C316.217 11.5615 315.803 9.87482 315.803 8.00416C315.803 5.45882 316.447 3.49616 317.735 2.11615C319.023 0.705488 320.894 0.000154495 323.347 0.000154495C325.77 0.000154495 327.595 0.705488 328.821 2.11615C330.079 3.49616 330.707 5.48949 330.707 8.09615V9.43016H325.923V7.77416C325.923 6.67016 325.709 5.87282 325.279 5.38215C324.85 4.86082 324.221 4.60016 323.393 4.60016C321.707 4.60016 320.863 5.62749 320.863 7.68215C320.863 8.84749 321.17 9.93616 321.783 10.9482C322.427 11.9602 323.577 13.1868 325.233 14.6282C327.349 16.4682 328.806 18.1395 329.603 19.6422C330.401 21.1448 330.799 22.9082 330.799 24.9322C330.799 27.5695 330.14 29.5935 328.821 31.0042C327.533 32.4148 325.647 33.1202 323.163 33.1202ZM333.7 0.460154H338.76V13.5702H344.188V0.460154H349.248V32.6602H344.188V18.1702H338.76V32.6602H333.7V0.460154Z" fill="black"></path></svg> 