<?xml version="1.0" encoding="UTF-8"?> <svg xmlns="http://www.w3.org/2000/svg" width="430" height="86" viewBox="0 0 430 86" fill="none"><path d="M12.8035 33.1202C10.3195 33.1202 8.41818 32.4148 7.09952 31.0042C5.78085 29.5935 5.12152 27.6002 5.12152 25.0242V8.09615C5.12152 5.52015 5.78085 3.52682 7.09952 2.11615C8.41818 0.705488 10.3195 0.000154495 12.8035 0.000154495C15.2875 0.000154495 17.1888 0.705488 18.5075 2.11615C19.8262 3.52682 20.4855 5.52015 20.4855 8.09615V25.0242C20.4855 27.6002 19.8262 29.5935 18.5075 31.0042C17.1888 32.4148 15.2875 33.1202 12.8035 33.1202ZM12.8035 28.5202C14.5515 28.5202 15.4255 27.4622 15.4255 25.3462V7.77416C15.4255 5.65816 14.5515 4.60016 12.8035 4.60016C11.0555 4.60016 10.1815 5.65816 10.1815 7.77416V25.3462C10.1815 27.4622 11.0555 28.5202 12.8035 28.5202ZM27.7449 18.9522L21.6269 0.460154H27.0089L30.4589 12.2822H30.5509L34.0009 0.460154H38.9229L32.8049 18.9522V32.6602H27.7449V18.9522ZM41.2024 0.460154H46.2624V32.6602H41.2024V0.460154ZM57.228 33.1202C54.7747 33.1202 52.904 32.4302 51.616 31.0502C50.328 29.6395 49.684 27.6308 49.684 25.0242V8.09615C49.684 5.48949 50.328 3.49616 51.616 2.11615C52.904 0.705488 54.7747 0.000154495 57.228 0.000154495C59.6813 0.000154495 61.552 0.705488 62.84 2.11615C64.128 3.49616 64.772 5.48949 64.772 8.09615V10.8562H59.988V7.77416C59.988 5.65816 59.114 4.60016 57.366 4.60016C55.618 4.60016 54.744 5.65816 54.744 7.77416V25.3922C54.744 27.4775 55.618 28.5202 57.366 28.5202C59.114 28.5202 59.988 27.4775 59.988 25.3922V19.0902H57.458V14.4902H64.772V25.0242C64.772 27.6308 64.128 29.6395 62.84 31.0502C61.552 32.4302 59.6813 33.1202 57.228 33.1202ZM71.9308 0.460154H78.7848L84.0288 32.6602H78.9688L78.0488 26.2662V26.3582H72.2988L71.3788 32.6602H66.6868L71.9308 0.460154ZM77.4508 21.9882L75.1968 6.07216H75.1048L72.8968 21.9882H77.4508ZM315.45 0.460154H329.25V5.06016H320.51V13.5702H327.456V18.1702H320.51V28.0602H329.25V32.6602H315.45V0.460154ZM330.827 0.460154H335.933L339.245 25.4382H339.337L342.649 0.460154H347.295L342.419 32.6602H335.703L330.827 0.460154ZM352.333 0.460154H359.187L364.431 32.6602H359.371L358.451 26.2662V26.3582H352.701L351.781 32.6602H347.089L352.333 0.460154ZM357.853 21.9882L355.599 6.07216H355.507L353.299 21.9882H357.853ZM366.054 28.1522L375.438 5.06016H366.514V0.460154H380.866V4.96815L371.482 28.0602H380.866V32.6602H366.054V28.1522ZM383.732 0.460154H388.792V32.6602H383.732V0.460154ZM399.757 33.1202C397.304 33.1202 395.433 32.4302 394.145 31.0502C392.857 29.6395 392.213 27.6308 392.213 25.0242V8.09615C392.213 5.48949 392.857 3.49616 394.145 2.11615C395.433 0.705488 397.304 0.000154495 399.757 0.000154495C402.211 0.000154495 404.081 0.705488 405.369 2.11615C406.657 3.49616 407.301 5.48949 407.301 8.09615V10.8562H402.517V7.77416C402.517 5.65816 401.643 4.60016 399.895 4.60016C398.147 4.60016 397.273 5.65816 397.273 7.77416V25.3922C397.273 27.4775 398.147 28.5202 399.895 28.5202C401.643 28.5202 402.517 27.4775 402.517 25.3922V19.0902H399.987V14.4902H407.301V25.0242C407.301 27.6308 406.657 29.6395 405.369 31.0502C404.081 32.4302 402.211 33.1202 399.757 33.1202ZM414.46 0.460154H421.314L426.558 32.6602H421.498L420.578 26.2662V26.3582H414.828L413.908 32.6602H409.216L414.46 0.460154ZM419.98 21.9882L417.726 6.07216H417.634L415.426 21.9882H419.98ZM5.29024 55.0602H0.000242192V50.4602H15.6402V55.0602H10.3502V82.6602H5.29024V55.0602ZM25.2244 83.1202C22.7404 83.1202 20.8391 82.4148 19.5204 81.0042C18.2017 79.5935 17.5424 77.6002 17.5424 75.0242V58.0962C17.5424 55.5202 18.2017 53.5268 19.5204 52.1162C20.8391 50.7055 22.7404 50.0002 25.2244 50.0002C27.7084 50.0002 29.6097 50.7055 30.9284 52.1162C32.2471 53.5268 32.9064 55.5202 32.9064 58.0962V75.0242C32.9064 77.6002 32.2471 79.5935 30.9284 81.0042C29.6097 82.4148 27.7084 83.1202 25.2244 83.1202ZM25.2244 78.5202C26.9724 78.5202 27.8464 77.4622 27.8464 75.3462V57.7742C27.8464 55.6582 26.9724 54.6002 25.2244 54.6002C23.4764 54.6002 22.6024 55.6582 22.6024 57.7742V75.3462C22.6024 77.4622 23.4764 78.5202 25.2244 78.5202ZM42.9064 83.1202C40.453 83.1202 38.5977 82.4302 37.3404 81.0502C36.083 79.6395 35.4544 77.6308 35.4544 75.0242V73.1842H40.2384V75.3922C40.2384 77.4775 41.1124 78.5202 42.8604 78.5202C43.7191 78.5202 44.363 78.2748 44.7924 77.7842C45.2524 77.2628 45.4824 76.4348 45.4824 75.3002C45.4824 73.9508 45.1757 72.7702 44.5624 71.7582C43.949 70.7155 42.8144 69.4735 41.1584 68.0322C39.073 66.1922 37.6164 64.5362 36.7884 63.0642C35.9604 61.5615 35.5464 59.8748 35.5464 58.0042C35.5464 55.4588 36.1904 53.4962 37.4784 52.1162C38.7664 50.7055 40.637 50.0002 43.0904 50.0002C45.5131 50.0002 47.3377 50.7055 48.5644 52.1162C49.8217 53.4962 50.4504 55.4895 50.4504 58.0962V59.4302H45.6664V57.7742C45.6664 56.6702 45.4517 55.8728 45.0224 55.3822C44.593 54.8608 43.9644 54.6002 43.1364 54.6002C41.4497 54.6002 40.6064 55.6275 40.6064 57.6822C40.6064 58.8475 40.913 59.9362 41.5264 60.9482C42.1704 61.9602 43.3204 63.1868 44.9764 64.6282C47.0924 66.4682 48.549 68.1395 49.3464 69.6422C50.1437 71.1448 50.5424 72.9082 50.5424 74.9322C50.5424 77.5695 49.8831 79.5935 48.5644 81.0042C47.2764 82.4148 45.3904 83.1202 42.9064 83.1202ZM53.4436 50.4602H58.5036V63.5702H63.9316V50.4602H68.9916V82.6602H63.9316V68.1702H58.5036V82.6602H53.4436V50.4602ZM72.76 50.4602H77.82V64.0302L84.26 50.4602H89.32L83.294 62.2822L89.412 82.6602H84.122L79.844 68.3082L77.82 72.4022V82.6602H72.76V50.4602ZM91.8069 50.4602H105.607V55.0602H96.8669V63.5702H103.813V68.1702H96.8669V78.0602H105.607V82.6602H91.8069V50.4602ZM108.518 50.4602H114.866L119.788 69.7342H119.88V50.4602H124.388V82.6602H119.19L113.118 59.1542H113.026V82.6602H108.518V50.4602ZM132.105 55.0602H126.815V50.4602H142.455V55.0602H137.165V82.6602H132.105V55.0602ZM144.905 50.4602H152.633C155.147 50.4602 157.033 51.1348 158.291 52.4842C159.548 53.8335 160.177 55.8115 160.177 58.4182V74.7022C160.177 77.3088 159.548 79.2868 158.291 80.6362C157.033 81.9855 155.147 82.6602 152.633 82.6602H144.905V50.4602ZM152.541 78.0602C153.369 78.0602 153.997 77.8148 154.427 77.3242C154.887 76.8335 155.117 76.0362 155.117 74.9322V58.1882C155.117 57.0842 154.887 56.2868 154.427 55.7962C153.997 55.3055 153.369 55.0602 152.541 55.0602H149.965V78.0602H152.541ZM167.412 50.4602H174.266L179.51 82.6602H174.45L173.53 76.2662V76.3582H167.78L166.86 82.6602H162.168L167.412 50.4602ZM172.932 71.9882L170.678 56.0722H170.586L168.378 71.9882H172.932ZM181.965 50.4602H188.313L193.235 69.7342H193.327V50.4602H197.835V82.6602H192.637L186.565 59.1542H186.473V82.6602H181.965V50.4602ZM216.323 83.1202C213.87 83.1202 211.999 82.4302 210.711 81.0502C209.423 79.6395 208.779 77.6308 208.779 75.0242V50.4602H213.839V75.3922C213.839 76.4962 214.054 77.2935 214.483 77.7842C214.943 78.2748 215.587 78.5202 216.415 78.5202C217.243 78.5202 217.872 78.2748 218.301 77.7842C218.761 77.2935 218.991 76.4962 218.991 75.3922V50.4602H223.867V75.0242C223.867 77.6308 223.223 79.6395 221.935 81.0502C220.647 82.4302 218.776 83.1202 216.323 83.1202ZM232.117 68.9522L225.999 50.4602H231.381L234.831 62.2822H234.923L238.373 50.4602H243.295L237.177 68.9522V82.6602H232.117V68.9522ZM257.404 66.1922L251.838 50.4602H257.174L260.578 60.8562H260.67L264.166 50.4602H268.95L263.384 66.1922L269.226 82.6602H263.89L260.21 71.4362H260.118L256.346 82.6602H251.562L257.404 66.1922ZM275.629 50.4602H282.483L287.727 82.6602H282.667L281.747 76.2662V76.3582H275.997L275.077 82.6602H270.385L275.629 50.4602ZM281.149 71.9882L278.895 56.0722H278.803L276.595 71.9882H281.149ZM290.182 50.4602H297.68C300.287 50.4602 302.188 51.0735 303.384 52.3002C304.58 53.4962 305.178 55.3515 305.178 57.8662V59.8442C305.178 63.1868 304.074 65.3028 301.866 66.1922V66.2842C303.093 66.6522 303.951 67.4035 304.442 68.5382C304.963 69.6728 305.224 71.1908 305.224 73.0922V78.7502C305.224 79.6702 305.255 80.4215 305.316 81.0042C305.377 81.5562 305.531 82.1082 305.776 82.6602H300.624C300.44 82.1388 300.317 81.6482 300.256 81.1882C300.195 80.7282 300.164 79.9002 300.164 78.7042V72.8162C300.164 71.3442 299.919 70.3168 299.428 69.7342C298.968 69.1515 298.155 68.8602 296.99 68.8602H295.242V82.6602H290.182V50.4602ZM297.082 64.2602C298.094 64.2602 298.845 63.9995 299.336 63.4782C299.857 62.9568 300.118 62.0828 300.118 60.8562V58.3722C300.118 57.2068 299.903 56.3635 299.474 55.8422C299.075 55.3208 298.431 55.0602 297.542 55.0602H295.242V64.2602H297.082ZM308.735 50.4602H313.795V82.6602H308.735V50.4602ZM317.584 50.4602H325.312C327.827 50.4602 329.713 51.1348 330.97 52.4842C332.228 53.8335 332.856 55.8115 332.856 58.4182V74.7022C332.856 77.3088 332.228 79.2868 330.97 80.6362C329.713 81.9855 327.827 82.6602 325.312 82.6602H317.584V50.4602ZM325.22 78.0602C326.048 78.0602 326.677 77.8148 327.106 77.3242C327.566 76.8335 327.796 76.0362 327.796 74.9322V58.1882C327.796 57.0842 327.566 56.2868 327.106 55.7962C326.677 55.3055 326.048 55.0602 325.22 55.0602H322.644V78.0602H325.22ZM358.543 85.6502C356.243 85.6502 354.832 84.6228 354.311 82.5682C353.36 82.9362 352.241 83.1202 350.953 83.1202C348.469 83.1202 346.568 82.4148 345.249 81.0042C343.93 79.5935 343.271 77.6002 343.271 75.0242V58.0962C343.271 55.5202 343.93 53.5268 345.249 52.1162C346.568 50.7055 348.469 50.0002 350.953 50.0002C353.437 50.0002 355.338 50.7055 356.657 52.1162C357.976 53.5268 358.635 55.5202 358.635 58.0962V75.0242C358.635 77.1708 358.16 78.9342 357.209 80.3142C357.393 80.6208 357.623 80.8202 357.899 80.9122C358.175 81.0042 358.574 81.0502 359.095 81.0502H359.877V85.6502H358.543ZM350.953 78.5202C352.701 78.5202 353.575 77.4622 353.575 75.3462V57.7742C353.575 55.6582 352.701 54.6002 350.953 54.6002C349.205 54.6002 348.331 55.6582 348.331 57.7742V75.3462C348.331 77.4622 349.205 78.5202 350.953 78.5202ZM362.057 50.4602H367.117V82.6602H362.057V50.4602ZM370.907 50.4602H375.967V78.0602H384.293V82.6602H370.907V50.4602ZM386.719 50.4602H391.779V82.6602H386.719V50.4602ZM395.569 50.4602H401.917L406.839 69.7342H406.931V50.4602H411.439V82.6602H406.241L400.169 59.1542H400.077V82.6602H395.569V50.4602ZM422.375 83.1202C419.922 83.1202 418.051 82.4302 416.763 81.0502C415.475 79.6395 414.831 77.6308 414.831 75.0242V58.0962C414.831 55.4895 415.475 53.4962 416.763 52.1162C418.051 50.7055 419.922 50.0002 422.375 50.0002C424.829 50.0002 426.699 50.7055 427.987 52.1162C429.275 53.4962 429.919 55.4895 429.919 58.0962V60.8562H425.135V57.7742C425.135 55.6582 424.261 54.6002 422.513 54.6002C420.765 54.6002 419.891 55.6582 419.891 57.7742V75.3922C419.891 77.4775 420.765 78.5202 422.513 78.5202C424.261 78.5202 425.135 77.4775 425.135 75.3922V69.0902H422.605V64.4902H429.919V75.0242C429.919 77.6308 429.275 79.6395 427.987 81.0502C426.699 82.4302 424.829 83.1202 422.375 83.1202Z" fill="black"></path><path d="M101.027 33.1202C98.5428 33.1202 96.6568 32.4302 95.3688 31.0502C94.1115 29.6702 93.4828 27.6922 93.4828 25.1162V22.4942H98.2668V25.3462C98.2668 27.4622 99.1408 28.5202 100.889 28.5202C101.748 28.5202 102.392 28.2595 102.821 27.7382C103.281 27.1862 103.511 26.2355 103.511 24.8862V22.2642C103.511 20.7922 103.25 19.7495 102.729 19.1362C102.208 18.4922 101.364 18.1702 100.199 18.1702H98.4968V13.5702H100.337C101.349 13.5702 102.1 13.3095 102.591 12.7882C103.112 12.2668 103.373 11.3928 103.373 10.1662V7.82016C103.373 6.71615 103.143 5.90349 102.683 5.38215C102.223 4.86082 101.61 4.60016 100.843 4.60016C99.2175 4.60016 98.4048 5.59682 98.4048 7.59016V9.70616H93.6208V8.00416C93.6208 5.42816 94.2495 3.45016 95.5068 2.07016C96.7948 0.690155 98.6348 0.000154495 101.027 0.000154495C103.45 0.000154495 105.29 0.690155 106.547 2.07016C107.804 3.41949 108.433 5.38215 108.433 7.95816V9.10816C108.433 10.8562 108.142 12.2668 107.559 13.3402C106.976 14.3828 106.072 15.1342 104.845 15.5942V15.6862C106.164 16.1768 107.114 16.9742 107.697 18.0782C108.28 19.1822 108.571 20.5928 108.571 22.3102V25.1622C108.571 27.7382 107.927 29.7162 106.639 31.0962C105.382 32.4455 103.511 33.1202 101.027 33.1202ZM119.636 0.460154H126.858L130.078 23.5062H130.17L133.39 0.460154H140.612V32.6602H135.828V8.28015H135.736L132.056 32.6602H127.824L124.144 8.28015H124.052V32.6602H119.636V0.460154ZM144.388 0.460154H149.448V32.6602H144.388V0.460154ZM153.238 0.460154H158.298V28.0602H166.624V32.6602H153.238V0.460154ZM169.05 0.460154H174.11V28.0602H182.436V32.6602H169.05V0.460154ZM184.863 0.460154H189.923V32.6602H184.863V0.460154ZM201.026 33.1202C198.542 33.1202 196.641 32.4148 195.322 31.0042C194.004 29.5935 193.344 27.6002 193.344 25.0242V8.09615C193.344 5.52015 194.004 3.52682 195.322 2.11615C196.641 0.705488 198.542 0.000154495 201.026 0.000154495C203.51 0.000154495 205.412 0.705488 206.73 2.11615C208.049 3.52682 208.708 5.52015 208.708 8.09615V25.0242C208.708 27.6002 208.049 29.5935 206.73 31.0042C205.412 32.4148 203.51 33.1202 201.026 33.1202ZM201.026 28.5202C202.774 28.5202 203.648 27.4622 203.648 25.3462V7.77416C203.648 5.65816 202.774 4.60016 201.026 4.60016C199.278 4.60016 198.404 5.65816 198.404 7.77416V25.3462C198.404 27.4622 199.278 28.5202 201.026 28.5202ZM212.13 0.460154H218.478L223.4 19.7342H223.492V0.460154H228V32.6602H222.802L216.73 9.15415H216.638V32.6602H212.13V0.460154ZM245.706 33.1202C243.253 33.1202 241.398 32.4302 240.14 31.0502C238.883 29.6395 238.254 27.6308 238.254 25.0242V23.1842H243.038V25.3922C243.038 27.4775 243.912 28.5202 245.66 28.5202C246.519 28.5202 247.163 28.2748 247.592 27.7842C248.052 27.2628 248.282 26.4348 248.282 25.3002C248.282 23.9508 247.976 22.7702 247.362 21.7582C246.749 20.7155 245.614 19.4735 243.958 18.0322C241.873 16.1922 240.416 14.5362 239.588 13.0642C238.76 11.5615 238.346 9.87482 238.346 8.00416C238.346 5.45882 238.99 3.49616 240.278 2.11615C241.566 0.705488 243.437 0.000154495 245.89 0.000154495C248.313 0.000154495 250.138 0.705488 251.364 2.11615C252.622 3.49616 253.25 5.48949 253.25 8.09615V9.43016H248.466V7.77416C248.466 6.67016 248.252 5.87282 247.822 5.38215C247.393 4.86082 246.764 4.60016 245.936 4.60016C244.25 4.60016 243.406 5.62749 243.406 7.68215C243.406 8.84749 243.713 9.93616 244.326 10.9482C244.97 11.9602 246.12 13.1868 247.776 14.6282C249.892 16.4682 251.349 18.1395 252.146 19.6422C252.944 21.1448 253.342 22.9082 253.342 24.9322C253.342 27.5695 252.683 29.5935 251.364 31.0042C250.076 32.4148 248.19 33.1202 245.706 33.1202ZM263.557 33.1202C261.073 33.1202 259.172 32.4148 257.853 31.0042C256.535 29.5935 255.875 27.6002 255.875 25.0242V8.09615C255.875 5.52015 256.535 3.52682 257.853 2.11615C259.172 0.705488 261.073 0.000154495 263.557 0.000154495C266.041 0.000154495 267.943 0.705488 269.261 2.11615C270.58 3.52682 271.239 5.52015 271.239 8.09615V25.0242C271.239 27.6002 270.58 29.5935 269.261 31.0042C267.943 32.4148 266.041 33.1202 263.557 33.1202ZM263.557 28.5202C265.305 28.5202 266.179 27.4622 266.179 25.3462V7.77416C266.179 5.65816 265.305 4.60016 263.557 4.60016C261.809 4.60016 260.935 5.65816 260.935 7.77416V25.3462C260.935 27.4622 261.809 28.5202 263.557 28.5202ZM276.317 5.33615H274.661V0.460154H279.537V4.83016L276.731 10.8562H274.385L276.317 5.33615ZM283.331 0.460154H290.553L293.773 23.5062H293.865L297.085 0.460154H304.307V32.6602H299.523V8.28015H299.431L295.751 32.6602H291.519L287.839 8.28015H287.747V32.6602H283.331V0.460154Z" fill="white"></path></svg> 